<svg width="71" height="28" viewBox="0 0 71 28" fill="none" xmlns="http://www.w3.org/2000/svg">
<path d="M36.646 10.4031L39.9763 10.1879C40.0523 10.7324 40.1916 11.1376 40.4195 11.4288C40.7867 11.8847 41.2933 12.1126 41.9644 12.1126C42.4582 12.1126 42.8508 11.9987 43.1167 11.7581C43.37 11.5681 43.5219 11.2642 43.5219 10.9476C43.5219 10.6437 43.3826 10.3525 43.142 10.1625C42.8888 9.93461 42.2936 9.70668 41.3566 9.50408C39.8244 9.16218 38.7227 8.70632 38.0769 8.12383C37.4311 7.57933 37.0639 6.78157 37.0892 5.93317C37.0892 5.35068 37.2665 4.76819 37.5957 4.287C37.9756 3.7425 38.4948 3.31197 39.1153 3.07137C39.7864 2.78013 40.7234 2.62817 41.9011 2.62817C43.3446 2.62817 44.4463 2.89409 45.2061 3.43859C45.9658 3.97043 46.4217 4.8315 46.561 6.00914L43.2687 6.19909C43.18 5.69257 43.0027 5.32535 42.7115 5.08476C42.4202 4.84417 42.0404 4.7302 41.5465 4.7302C41.1413 4.7302 40.8374 4.81884 40.6348 4.98346C40.4448 5.13541 40.3182 5.36334 40.3309 5.6166C40.3309 5.80654 40.4322 5.98382 40.5841 6.09778C40.7488 6.24974 41.1413 6.38903 41.7618 6.51566C43.294 6.84489 44.383 7.17412 45.0541 7.51602C45.7252 7.85791 46.2064 8.27579 46.4977 8.76964C46.8016 9.27615 46.9535 9.85864 46.9409 10.4538C46.9409 11.1629 46.7383 11.872 46.3331 12.4672C45.9152 13.0877 45.3327 13.5688 44.6489 13.8601C43.9271 14.1767 43.0154 14.3413 41.9264 14.3413C40.0016 14.3413 38.6721 13.974 37.9249 13.2269C37.1778 12.4798 36.7346 11.5428 36.646 10.4031ZM1.3041 14.1513V2.83078H7.14166C8.218 2.83078 9.05374 2.91942 9.62357 3.10936C10.1807 3.28664 10.6746 3.65386 11.0038 4.14771C11.371 4.69221 11.5483 5.32535 11.5357 5.98382C11.5736 7.09814 11.0038 8.16182 10.0288 8.71898C9.6489 8.93425 9.23102 9.08621 8.80049 9.16218C9.11706 9.25082 9.43363 9.40278 9.71221 9.58006C9.92748 9.75733 10.1048 9.95994 10.2694 10.1752C10.4593 10.3905 10.6239 10.6311 10.7632 10.8843L12.46 14.164H8.48392L6.60982 10.6817C6.36923 10.2385 6.16662 9.94728 5.97668 9.80799C5.72342 9.63071 5.41952 9.54207 5.11561 9.54207H4.8117V14.1387H1.3041V14.1513ZM4.8117 7.41472H6.29325C6.60982 7.38939 6.91373 7.33874 7.21764 7.26276C7.44557 7.22477 7.64817 7.09815 7.78746 6.9082C8.12936 6.45234 8.07871 5.80654 7.66083 5.41399C7.4329 5.22405 6.98971 5.12275 6.35657 5.12275H4.8117V7.41472ZM0.506348 23.851L3.83667 23.6358C3.91264 24.1803 4.05193 24.5855 4.27986 24.8767C4.63442 25.3326 5.1536 25.5732 5.82473 25.5732C6.31858 25.5732 6.71112 25.4592 6.97704 25.2186C7.2303 25.016 7.38225 24.7248 7.38225 24.4082C7.38225 24.1043 7.24296 23.813 7.00237 23.6231C6.74911 23.3952 6.15396 23.1672 5.20425 22.9646C3.67205 22.6227 2.57039 22.1669 1.92458 21.5844C1.27878 21.0399 0.911558 20.2421 0.936883 19.3937C0.936883 18.8112 1.11416 18.2288 1.4434 17.7476C1.82328 17.2031 2.34245 16.7725 2.96293 16.5319C3.63406 16.2407 4.57111 16.0887 5.74875 16.0887C7.19231 16.0887 8.29397 16.3547 9.05374 16.8992C9.81351 17.4437 10.2567 18.2921 10.396 19.4697L7.10367 19.6596C7.01503 19.1531 6.83775 18.7859 6.54651 18.5453C6.26793 18.3047 5.87538 18.1908 5.38153 18.2034C4.97632 18.2034 4.67241 18.2921 4.46981 18.4693C4.2672 18.6213 4.15324 18.8492 4.1659 19.1025C4.1659 19.2924 4.2672 19.4697 4.41916 19.5837C4.58377 19.7356 4.97632 19.8749 5.5968 20.0015C7.129 20.3308 8.218 20.66 8.88913 21.0019C9.56026 21.3438 10.0414 21.7617 10.3327 22.2555C10.6366 22.762 10.7885 23.3445 10.7885 23.927C10.7885 24.6361 10.5733 25.3326 10.1807 25.9277C9.76286 26.5482 9.18037 27.0294 8.49658 27.3206C7.7748 27.6372 6.86308 27.8018 5.77408 27.8018C3.84933 27.8018 2.51973 27.4346 1.77263 26.6875C1.02552 25.9277 0.60765 24.9907 0.506348 23.851Z" fill="#212B36"/>
<path d="M17.348 22.9646L20.4124 23.889C20.2478 24.6615 19.9059 25.3959 19.4374 26.0417C19.0068 26.6115 18.437 27.0547 17.7912 27.346C17.1327 27.6372 16.297 27.7892 15.284 27.7892C14.0557 27.7892 13.0426 27.6119 12.2702 27.2573C11.4851 26.9028 10.814 26.2696 10.2442 25.3706C9.67433 24.4715 9.39575 23.3192 9.39575 21.9136C9.39575 20.0395 9.8896 18.596 10.89 17.5956C11.8903 16.5953 13.2959 16.0887 15.1193 16.0887C16.5502 16.0887 17.6646 16.38 18.4876 16.9498C19.2981 17.5323 19.9059 18.4187 20.3111 19.609L17.2214 20.2928C17.1454 20.0269 17.0314 19.761 16.8795 19.533C16.6895 19.2671 16.4489 19.0645 16.1577 18.9126C15.8664 18.7606 15.5372 18.6973 15.208 18.6973C14.4102 18.6973 13.8024 19.0139 13.3845 19.6597C13.068 20.1282 12.9034 20.8753 12.9034 21.8883C12.9034 23.1419 13.0933 24.003 13.4732 24.4715C13.8531 24.94 14.3849 25.168 15.0814 25.168C15.7525 25.168 16.259 24.978 16.6009 24.6108C16.9428 24.2183 17.196 23.6738 17.348 22.9646ZM24.5025 16.2787H27.9974V20.2421H31.8216V16.2787H35.3418V27.5992H31.8216V23.0153H27.9974V27.5992H24.5025V16.2787Z" fill="#212B36"/>
<path d="M34.8606 21.9391C34.8606 20.0903 35.3798 18.6467 36.4055 17.621C37.4311 16.5953 38.8747 16.0762 40.7108 16.0762C42.5976 16.0762 44.0411 16.5827 45.0668 17.5957C46.0925 18.6087 46.599 20.027 46.599 21.8504C46.599 23.18 46.3711 24.2563 45.9279 25.1048C45.4974 25.9405 44.8262 26.6243 44.0031 27.0802C43.1547 27.5487 42.1037 27.7893 40.8501 27.7893C39.5712 27.7893 38.5201 27.5867 37.6844 27.1815C36.8233 26.7509 36.1142 26.0798 35.6457 25.2567C35.1265 24.3703 34.8606 23.2686 34.8606 21.9391ZM38.3555 21.9517C38.3555 23.0914 38.5708 23.9144 38.9887 24.421C39.4065 24.9148 39.989 25.1681 40.7235 25.1681C41.4706 25.1681 42.0531 24.9275 42.4709 24.4336C42.8888 23.9398 43.0914 23.066 43.0914 21.7998C43.0914 20.7361 42.8762 19.951 42.4456 19.4698C42.0151 18.976 41.4326 18.7354 40.6982 18.7354C40.0523 18.71 39.4319 18.9886 39.0013 19.4825C38.5708 19.9763 38.3555 20.7994 38.3555 21.9517ZM50.1826 21.9391C50.1826 20.0903 50.7018 18.6467 51.7275 17.621C52.7531 16.5953 54.1967 16.0762 56.0328 16.0762C57.9196 16.0762 59.3758 16.5827 60.3888 17.5957C61.4018 18.6087 61.921 20.027 61.921 21.8504C61.921 23.18 61.6931 24.2563 61.2499 25.1048C60.8194 25.9405 60.1482 26.6243 59.3251 27.0802C58.4767 27.5487 57.4257 27.7893 56.1721 27.7893C54.8932 27.7893 53.8421 27.5867 53.0064 27.1815C52.1453 26.7509 51.4362 26.0798 50.9677 25.2567C50.4485 24.3703 50.1826 23.2686 50.1826 21.9391ZM53.6775 21.9517C53.6775 23.0914 53.8928 23.9144 54.3107 24.421C54.7285 24.9148 55.311 25.1681 56.0455 25.1681C56.7926 25.1681 57.3751 24.9275 57.7929 24.4336C58.2108 23.9398 58.4134 23.066 58.4134 21.7998C58.4134 20.7361 58.1982 19.951 57.7676 19.4698C57.3371 18.976 56.7546 18.7354 56.0201 18.7354C55.3743 18.71 54.7412 18.9886 54.3233 19.4825C53.8928 19.9763 53.6775 20.7994 53.6775 21.9517Z" fill="#212B36"/>
<path d="M61.5537 16.2787H65.0486V24.8134H70.5063V27.5992H61.541V16.2787H61.5537Z" fill="#212B36"/>
<path d="M50.1952 9.55472L51.4615 8.66833L53.019 10.8843C53.285 11.2389 53.4876 11.6188 53.6395 12.0366C53.7282 12.3532 53.7028 12.6951 53.5762 12.999C53.4116 13.3789 53.1457 13.6955 52.7911 13.9234C52.3732 14.2146 52.0187 14.3793 51.7148 14.4299C51.4235 14.4806 51.1196 14.4299 50.841 14.3033C50.5371 14.1513 50.2712 13.9361 50.0686 13.6575L51.1576 12.6444C51.2462 12.7837 51.3602 12.9104 51.4868 13.0117C51.5755 13.075 51.6768 13.113 51.7907 13.113C51.8794 13.113 51.968 13.075 52.0313 13.0243C52.158 12.9484 52.2466 12.7964 52.2339 12.6444C52.196 12.4292 52.1073 12.2139 51.968 12.0493L50.1952 9.55472ZM53.9941 10.9603L55.1464 10.0486C55.273 10.2005 55.4376 10.3145 55.6149 10.3778C55.8682 10.4538 56.1341 10.4031 56.3494 10.2385C56.5013 10.1372 56.6279 9.99792 56.6786 9.82064C56.7546 9.59271 56.6279 9.33946 56.4 9.26348C56.362 9.25082 56.324 9.23815 56.286 9.23815C56.1341 9.22549 55.8682 9.28881 55.4756 9.45342C54.8298 9.71934 54.3233 9.82064 53.9434 9.78265C53.5762 9.74467 53.2343 9.55472 53.0317 9.23815C52.8797 9.02289 52.8038 8.76963 52.7911 8.51637C52.7911 8.22513 52.8671 7.93388 53.0317 7.69329C53.2723 7.3514 53.5635 7.06015 53.9181 6.83222C54.4499 6.465 54.9185 6.28772 55.3237 6.28772C55.7289 6.28772 56.1088 6.47766 56.4633 6.87021L55.3237 7.76927C55.0957 7.47802 54.6652 7.41471 54.374 7.64264L54.336 7.68063C54.2093 7.75661 54.1207 7.87057 54.0701 8.00986C54.0321 8.11116 54.0574 8.22513 54.1207 8.31377C54.1714 8.37708 54.2473 8.42773 54.336 8.42773C54.4373 8.4404 54.6146 8.38975 54.8678 8.27578C55.5009 8.00986 55.9821 7.85791 56.3114 7.80726C56.59 7.75661 56.8812 7.78193 57.1471 7.8959C57.3877 7.9972 57.5903 8.17448 57.7296 8.38975C57.9069 8.643 58.0082 8.94691 58.0208 9.26348C58.0335 9.59271 57.9449 9.90928 57.7676 10.1879C57.5397 10.5298 57.2484 10.821 56.9065 11.0489C56.2101 11.5301 55.6402 11.7327 55.1844 11.6568C54.6905 11.5808 54.2853 11.3275 53.9941 10.9603Z" fill="#212B36"/>
<path d="M50.1952 9.55472L51.4615 8.66833L53.019 10.8843C53.285 11.2389 53.4876 11.6188 53.6395 12.0366C53.7282 12.3532 53.7028 12.6951 53.5762 12.999C53.4116 13.3789 53.1457 13.6955 52.7911 13.9234C52.3732 14.2146 52.0187 14.3793 51.7148 14.4299C51.4235 14.4806 51.1196 14.4299 50.841 14.3033C50.5371 14.1513 50.2712 13.9361 50.0686 13.6575L51.1576 12.6444C51.2462 12.7837 51.3602 12.9104 51.4868 13.0117C51.5755 13.075 51.6768 13.113 51.7907 13.113C51.8794 13.113 51.968 13.075 52.0313 13.0243C52.158 12.9484 52.2466 12.7964 52.2339 12.6444C52.196 12.4292 52.1073 12.2139 51.968 12.0493L50.1952 9.55472ZM53.9941 10.9603L55.1464 10.0486C55.273 10.2005 55.4376 10.3145 55.6149 10.3778C55.8682 10.4538 56.1341 10.4031 56.3494 10.2385C56.5013 10.1372 56.6279 9.99792 56.6786 9.82064C56.7546 9.59271 56.6279 9.33946 56.4 9.26348C56.362 9.25082 56.324 9.23815 56.286 9.23815C56.1341 9.22549 55.8682 9.28881 55.4756 9.45342C54.8298 9.71934 54.3233 9.82064 53.9434 9.78265C53.5762 9.74467 53.2343 9.55472 53.0317 9.23815C52.8797 9.02289 52.8038 8.76963 52.7911 8.51637C52.7911 8.22513 52.8671 7.93388 53.0317 7.69329C53.2723 7.3514 53.5635 7.06015 53.9181 6.83222C54.4499 6.465 54.9185 6.28772 55.3237 6.28772C55.7289 6.28772 56.1088 6.47766 56.4633 6.87021L55.3237 7.76927C55.0957 7.47802 54.6652 7.41471 54.374 7.64264L54.336 7.68063C54.2093 7.75661 54.1207 7.87057 54.0701 8.00986C54.0321 8.11116 54.0574 8.22513 54.1207 8.31377C54.1714 8.37708 54.2473 8.42773 54.336 8.42773C54.4373 8.4404 54.6146 8.38975 54.8678 8.27578C55.5009 8.00986 55.9821 7.85791 56.3114 7.80726C56.59 7.75661 56.8812 7.78193 57.1471 7.8959C57.3877 7.9972 57.5903 8.17448 57.7296 8.38975C57.9069 8.643 58.0082 8.94691 58.0208 9.26348C58.0335 9.59271 57.9449 9.90928 57.7676 10.1879C57.5397 10.5298 57.2484 10.821 56.9065 11.0489C56.2101 11.5301 55.6402 11.7327 55.1844 11.6568C54.6905 11.5808 54.2853 11.3275 53.9941 10.9603Z" fill="#212B36"/>
</svg>
