<svg xmlns="http://www.w3.org/2000/svg"  viewBox="0 0 468 468" width="58px" height="58px"><path d="M 297.53711 0 C 284.37511 9.003 271.40391 22.218937 271.75391 39.210938 C 247.21191 31.642938 225.44692 31.700859 201.04492 39.255859 C 198.66492 24.058859 186.03031 2.6884219 170.32031 0.85742188 C 154.29931 15.995422 147.24111 38.340594 151.66211 59.933594 C 129.44211 77.284594 115.63477 101.54067 115.63477 128.38867 C 115.63477 181.13567 168.90895 223.89453 234.62695 223.89453 C 300.34495 223.89453 353.61914 181.13567 353.61914 128.38867 C 353.62014 103.06267 341.33211 80.043219 321.28711 62.949219 C 325.98911 38.843219 316.77911 15.082 297.53711 0 z M 44.458984 115.23438 L 44.1875 146.58008 L 94.152344 147.01367 L 94.425781 115.66992 L 44.458984 115.23438 z M 375.38086 115.23438 L 375.38086 146.57812 L 423.81836 146.57812 L 423.81836 115.23438 L 375.38086 115.23438 z M 157.75391 243.68164 C 143.64691 260.81164 135.17383 282.75473 135.17383 306.67773 L 135.17383 467.57617 L 179.66797 467.57617 L 179.66797 375.59961 L 211.01367 375.59961 L 211.01367 467.57617 L 256.00391 467.57617 L 256.00391 375.59961 L 287.34766 375.59961 L 287.34766 467.57617 L 334.08008 467.57617 L 334.08008 306.67773 C 334.08108 282.75373 325.60895 260.81064 311.50195 243.68164 C 265.84195 271.41964 203.41191 271.41864 157.75391 243.68164 z M 45.4375 276.64844 L 45.4375 436.66211 C 45.4375 453.94111 59.49725 468 76.78125 468 L 110.91992 468 L 110.91992 436.6543 L 76.78125 436.66211 L 76.78125 276.64844 L 45.4375 276.64844 z" fill="#212B36"/></svg>
